PathFileType	4	(X/Y/Z)	RBDS016static.trc
DataRate	CameraRate	NumFrames	NumMarkers	Units	OrigDataRate	OrigDataStartFrame	OrigNumFrames
150.000000	150.000000	4	48	mm	150.000000	37	150
Frame#	Time	L.Ankle			L.Ankle.Medial			L.ASIS			L.GTR			L.Heel.Bottom			L.Heel.Lateral			L.Heel.Top			L.HF			L.Iliac.Crest			L.Knee			L.Knee.Medial			L.MT1			L.MT2			L.MT5			L.PSIS			L.Shank.Bottom.Lateral			L.Shank.Bottom.Medial			L.Shank.Top.Lateral			L.Shank.Top.Medial			L.Thigh.Bottom.Lateral			L.Thigh.Bottom.Medial			L.Thigh.Top.Lateral			L.Thigh.Top.Medial			L.TT			R.Ankle			R.Ankle.Medial			R.ASIS			R.GTR			R.Heel.Bottom			R.Heel.Lateral			R.Heel.Top			R.HF			R.Iliac.Crest			R.Knee			R.Knee.Medial			R.MT1			R.MT2			R.MT5			R.PSIS			R.Shank.Bottom.Lateral			R.Shank.Bottom.Medial			R.Shank.Top.Lateral			R.Shank.Top.Medial			R.Thigh.Bottom.Lateral			R.Thigh.Bottom.Medial			R.Thigh.Top.Lateral			R.Thigh.Top.Medial			R.TT			
		X1	Y1	Z1	X2	Y2	Z2	X3	Y3	Z3	X4	Y4	Z4	X5	Y5	Z5	X6	Y6	Z6	X7	Y7	Z7	X8	Y8	Z8	X9	Y9	Z9	X10	Y10	Z10	X11	Y11	Z11	X12	Y12	Z12	X13	Y13	Z13	X14	Y14	Z14	X15	Y15	Z15	X16	Y16	Z16	X17	Y17	Z17	X18	Y18	Z18	X19	Y19	Z19	X20	Y20	Z20	X21	Y21	Z21	X22	Y22	Z22	X23	Y23	Z23	X24	Y24	Z24	X25	Y25	Z25	X26	Y26	Z26	X27	Y27	Z27	X28	Y28	Z28	X29	Y29	Z29	X30	Y30	Z30	X31	Y31	Z31	X32	Y32	Z32	X33	Y33	Z33	X34	Y34	Z34	X35	Y35	Z35	X36	Y36	Z36	X37	Y37	Z37	X38	Y38	Z38	X39	Y39	Z39	X40	Y40	Z40	X41	Y41	Z41	X42	Y42	Z42	X43	Y43	Z43	X44	Y44	Z44	X45	Y45	Z45	X46	Y46	Z46	X47	Y47	Z47	X48	Y48	Z48	

38	0.2466666666666667	722.6914672851563	98.26565551757813	1044.961791992188	732.0617065429688	111.1403884887695	1131.858520507813	860.1927490234375	945.0157470703125	1122.796508789063	783.7322998046875	882.1444091796875	1051.4873046875	644.9656982421875	40.34702682495117	1088.058837890625	669.0087890625	62.1897087097168	1047.177124023438	654.2938232421875	87.92489624023438	1088.908081054688	754.1087036132813	444.5950317382813	1025.538452148438	775.1373901367188	1007.753540039063	1061.73388671875	757.56982421875	503.9485473632813	1030.295288085938	731.23193359375	481.3302917480469	1161.8916015625	861.1221923828125	60.59480285644531	1127.357177734375	865.5244140625	70.35175323486328	1088.973510742188	828.0687255859375	52.82941436767578	1021.724304199219	663.7976684570313	967.62451171875	1180.195068359375	702.5672607421875	174.8949127197266	1038.951782226563	674.4359741210938	178.7452087402344	1086.861694335938	695.3739624023438	254.6281433105469	1028.953979492188	669.5734252929688	259.0963745117188	1076.454467773438	746.5408935546875	586.80908203125	1027.316650390625	684.4666137695313	592.9547119140625	1066.096435546875	755.5218505859375	696.4248657226563	1026.360107421875	697.0477294921875	701.8404541015625	1064.944946289063	802.1937255859375	428.5325927734375	1089.559936523438	714.6743774414063	101.2030868530273	1410.669799804688	737.6798095703125	122.4273834228516	1325.615844726563	844.44970703125	949.3009643554688	1354.780639648438	764.8849487304688	888.1668701171875	1416.507080078125	639.9326782226563	41.48960876464844	1366.0966796875	668.7919921875	64.96474456787109	1406.36669921875	652.225341796875	92.28340911865234	1363.301391601563	742.2338256835938	450.5183410644531	1427.538940429688	759.931640625	1003.516967773438	1400.2373046875	742.4824829101563	513.4765625	1421.9130859375	730.7154541015625	485.3850402832031	1292.886962890625	855.4119873046875	61.28374099731445	1329.204833984375	862.5730590820313	70.75865936279297	1371.643920898438	824.761962890625	48.63861465454102	1438.888671875	658.2109375	967.6452026367188	1281.813110351563	710.9102172851563	170.7548065185547	1419.547729492188	670.9253540039063	176.1364593505859	1387.5849609375	707.694091796875	254.5690460205078	1434.805786132813	666.5725708007813	255.9011383056641	1400.705444335938	727.3276977539063	598.3179321289063	1429.695922851563	672.6605834960938	599.509521484375	1381.483154296875	724.508544921875	708.9752807617188	1432.393798828125	674.4735717773438	709.3689575195313	1385.413452148438	792.0785522460938	423.0213928222656	1373.41064453125	
39	0.2533333333333334	722.707763671875	98.24234008789063	1044.970581054688	732.054931640625	111.1386947631836	1131.868896484375	860.1490478515625	945.0122680664063	1122.880249023438	783.6553344726563	882.1333618164063	1051.575439453125	644.9573364257813	40.34946823120117	1088.069213867188	669.0140991210938	62.18766403198242	1047.190307617188	654.284912109375	87.93000793457031	1088.908569335938	754.087646484375	444.6047668457031	1025.59228515625	775.0869750976563	1007.711975097656	1061.782470703125	757.5365600585938	503.9555053710938	1030.333862304688	731.1928100585938	481.3670043945313	1162.081420898438	861.1282958984375	60.58881378173828	1127.369384765625	865.523681640625	70.34781646728516	1088.964233398438	828.0736083984375	52.83041763305664	1021.724304199219	663.7439575195313	967.6539306640625	1180.254638671875	702.5657348632813	174.9016265869141	1038.966796875	674.4324951171875	178.7482757568359	1086.875732421875	695.3670654296875	254.6338958740234	1028.968627929688	669.5637817382813	259.0990905761719	1076.46240234375	746.4534301757813	586.8135375976563	1027.369384765625	684.403076171875	592.9591064453125	1066.147338867188	755.4796142578125	696.4179077148438	1026.440063476563	696.9879760742188	701.8462524414063	1065.018798828125	802.1649780273438	428.5200500488281	1089.603149414063	714.6766357421875	101.2035064697266	1410.683471679688	737.6795043945313	122.4153442382813	1325.631225585938	844.3920288085938	949.3062744140625	1354.853271484375	764.79248046875	888.1764526367188	1416.53466796875	639.9363403320313	41.49188232421875	1366.094848632813	668.7858276367188	64.95783996582031	1406.367309570313	652.2266845703125	92.28396606445313	1363.302490234375	742.1875610351563	450.5942687988281	1427.811401367188	759.8660278320313	1003.546569824219	1400.3251953125	742.4365234375	513.484375	1421.95654296875	730.6574096679688	485.3888549804688	1292.93115234375	855.4097900390625	61.27406692504883	1329.216186523438	862.5681762695313	70.76359558105469	1371.646240234375	824.7648315429688	48.64012908935547	1438.885375976563	658.1553955078125	967.6971435546875	1281.890502929688	710.8936157226563	170.7149810791016	1419.536499023438	670.9120483398438	176.1264953613281	1387.591796875	707.6659545898438	254.5521087646484	1434.824951171875	666.5529174804688	255.8904724121094	1400.719604492188	727.2617797851563	598.3236083984375	1429.7314453125	672.5914306640625	599.503662109375	1381.518310546875	724.4303588867188	708.9847412109375	1432.432495117188	674.387939453125	709.3771362304688	1385.447021484375	792.044677734375	423.0213623046875	1373.451538085938	
40	0.26	722.7022094726563	98.25204467773438	1044.96240234375	732.0625	111.1419830322266	1131.87939453125	860.1082153320313	944.9927978515625	1122.96728515625	783.624755859375	882.1319580078125	1051.650390625	644.9570922851563	40.35488891601563	1088.064208984375	669.0193481445313	62.18096923828125	1047.185302734375	654.2860717773438	87.93242645263672	1088.9140625	754.0767822265625	444.6123657226563	1025.639892578125	775.0347290039063	1007.689758300781	1061.820068359375	757.5160522460938	503.9605407714844	1030.381713867188	731.1682739257813	481.3721618652344	1162.11376953125	861.1231689453125	60.58609008789063	1127.364624023438	865.5189208984375	70.34342193603516	1088.965942382813	828.0716552734375	52.82341003417969	1021.719787597656	663.703125	967.6912841796875	1180.319946289063	702.566650390625	174.9016571044922	1038.9716796875	674.4329833984375	178.7488861083984	1086.88037109375	695.360107421875	254.6421813964844	1028.988159179688	669.549072265625	259.1075439453125	1076.485717773438	746.407470703125	586.81201171875	1027.432983398438	684.3367309570313	592.9629516601563	1066.200927734375	755.4235229492188	696.423583984375	1026.498413085938	696.93701171875	701.8408813476563	1065.107666015625	802.15185546875	428.5066223144531	1089.6416015625	714.676513671875	101.1938552856445	1410.672973632813	737.669189453125	122.4129943847656	1325.637451171875	844.33251953125	949.30712890625	1354.91845703125	764.704345703125	888.1770629882813	1416.562255859375	639.9376831054688	41.47879409790039	1366.09326171875	668.7913818359375	64.96106719970703	1406.375610351563	652.2210693359375	92.28555297851563	1363.283447265625	742.142333984375	450.592529296875	1427.842651367188	759.81591796875	1003.586120605469	1400.398681640625	742.3681030273438	513.4884643554688	1422.002685546875	730.590576171875	485.3824768066406	1292.969970703125	855.4024047851563	61.2772331237793	1329.211181640625	862.5679321289063	70.75896453857422	1371.64013671875	824.7588500976563	48.63677597045898	1438.880981445313	658.1124877929688	967.7426147460938	1281.976806640625	710.8797607421875	170.7152404785156	1419.5439453125	670.9035034179688	176.1104431152344	1387.598754882813	707.6370239257813	254.5417785644531	1434.845947265625	666.5322875976563	255.8777160644531	1400.7314453125	727.1863403320313	598.3359375	1429.769409179688	672.5253295898438	599.5147094726563	1381.564819335938	724.3585815429688	708.9959106445313	1432.455078125	674.2984619140625	709.3727416992188	1385.467651367188	791.99853515625	423.0316162109375	1373.4912109375	
41	0.2666666666666667	722.6932373046875	98.25686645507813	1044.959716796875	732.0589599609375	111.1483459472656	1131.881103515625	860.0740966796875	944.9915161132813	1123.049926757813	783.6060791015625	882.1342163085938	1051.727416992188	644.9571533203125	40.35113525390625	1088.058471679688	669.01416015625	62.18703842163086	1047.18701171875	654.2862548828125	87.93595123291016	1088.91357421875	754.052001953125	444.621337890625	1025.68359375	775.0175170898438	1007.65771484375	1061.880004882813	757.509521484375	503.9602355957031	1030.427612304688	731.13134765625	481.3578186035156	1162.15966796875	861.126953125	60.58038711547852	1127.369140625	865.5235595703125	70.34088897705078	1088.966552734375	828.0740356445313	52.8216438293457	1021.720703125	663.6632080078125	967.7113647460938	1180.377319335938	702.5641479492188	174.9125213623047	1038.975341796875	674.4258422851563	178.7506103515625	1086.8916015625	695.3555908203125	254.6496887207031	1029.003540039063	669.54296875	259.1060791015625	1076.4873046875	746.3507690429688	586.8125	1027.498413085938	684.2824096679688	592.9651489257813	1066.261962890625	755.3740234375	696.4178466796875	1026.588256835938	696.8815307617188	701.8524780273438	1065.15869140625	802.140625	428.4954833984375	1089.688720703125	714.6829833984375	101.1863861083984	1410.680541992188	737.6824340820313	122.4122314453125	1325.652587890625	844.2695922851563	949.3120727539063	1355.014526367188	764.6095581054688	888.1871948242188	1416.596313476563	639.9351196289063	41.47794723510742	1366.088256835938	668.7864379882813	64.95089721679688	1406.36962890625	652.2174682617188	92.28270721435547	1363.279418945313	742.08056640625	450.5949401855469	1427.878051757813	759.7606811523438	1003.615661621094	1400.461059570313	742.3102416992188	513.4998168945313	1422.048828125	730.5491333007813	485.3927917480469	1293.014282226563	855.4108276367188	61.26901626586914	1329.2197265625	862.5651245117188	70.75503540039063	1371.651245117188	824.76416015625	48.63435363769531	1438.900146484375	658.087890625	967.7723388671875	1282.033325195313	710.8621215820313	170.7295074462891	1419.583984375	670.884765625	176.1071929931641	1387.598999023438	707.5975341796875	254.5319366455078	1434.859985351563	666.509765625	255.8684234619141	1400.733276367188	727.1021118164063	598.3590698242188	1429.819458007813	672.448486328125	599.5237426757813	1381.59033203125	724.283203125	709.0237426757813	1432.481201171875	674.2276611328125	709.3784790039063	1385.501220703125	791.9550170898438	423.0379028320313	1373.536987304688	
